# xmcd CD database file generated by Grip 3.1.4
# 
# Track frame offsets:
#       150
#       19050
#       37725
#       54562
#       69412
#       86925
#       105562
#       128287
#       143700
#       158925
#       171900
# 
# Disc length: 2532 seconds
# 
# Revision: 2
# Processed by: cddbd v1.5.1PL2 Copyright (c) Steve Scherf et al.
# Submitted via: Grip 3.1.4
# 
DISCID=8709e20b
DTITLE=Tanya Savory - Where We Live
DYEAR=2002
DGENRE=Country
TTITLE0=Bluer
TTITLE1=Where We Live
TTITLE2=This Old Tree
TTITLE3=Carolina
TTITLE4=Nashville
TTITLE5=Losing Me
TTITLE6=Down At The Do Drop
TTITLE7=The Biggest Share
TTITLE8=County Fair
TTITLE9=Any Way It Lands
TTITLE10=The Road Was New
EXTD=Rounder Records
EXTT0=
EXTT1=
EXTT2=
EXTT3=
EXTT4=
EXTT5=
EXTT6=
EXTT7=
EXTT8=
EXTT9=
EXTT10=
PLAYORDER=
